<mxfile host="app.diagrams.net" modified="2023-05-30T15:51:37.342Z" agent="Mozilla/5.0 (Windows NT 10.0; Win64; x64; rv:109.0) Gecko/20100101 Firefox/113.0" version="21.3.5" etag="h4DybJP7wXZXxP6nGwB_" type="github">
  <diagram name="Page-1" id="cPwrzSmziiuNRBr4NEeK">
    <mxGraphModel>
      <root>
        <mxCell id="0" />
        <mxCell id="1" parent="0" />
      </root>
    </mxGraphModel>
  </diagram>
</mxfile>
